<svg width="19" height="19" viewBox="0 0 19 19" fill="none" xmlns="http://www.w3.org/2000/svg">
<path d="M3.95964 9.50018L2.3763 7.91211L0.792969 9.50018" stroke="black" stroke-width="1.58333" stroke-linecap="round" stroke-linejoin="round"/>
<path d="M15.043 9.5L16.6263 11.0881L18.2096 9.5" stroke="black" stroke-width="1.58333" stroke-linecap="round" stroke-linejoin="round"/>
<path d="M16.6276 11.0881V9.50002C16.6232 8.02402 16.1633 6.58559 15.311 5.38235C14.4586 4.17911 13.2558 3.27008 11.8676 2.78016C10.4794 2.29023 8.97407 2.24345 7.55832 2.64623C6.14256 3.04901 4.88589 3.8816 3.96094 5.02961" stroke="black" stroke-width="1.58333" stroke-linecap="round" stroke-linejoin="round"/>
<path d="M2.375 7.91211V9.50018C2.37938 10.9762 2.83933 12.4146 3.69164 13.6178C4.54396 14.8211 5.74683 15.7301 7.135 16.22C8.52317 16.71 10.0285 16.7567 11.4443 16.354C12.86 15.9512 14.1167 15.1186 15.0417 13.9706" stroke="black" stroke-width="1.58333" stroke-linecap="round" stroke-linejoin="round"/>
</svg>
